<svg width="1782" height="1705" viewBox="0 0 1782 1705" fill="none" xmlns="http://www.w3.org/2000/svg">
<path fill-rule="evenodd" clip-rule="evenodd" d="M280.332 1629.69C276.332 1629.69 271.332 1627.69 267.332 1624.69C259.332 1617.69 258.332 1604.69 265.332 1596.69L264.332 1599.69L109.332 1379.69C106.332 1374.69 105.332 1368.69 106.332 1362.69C108.332 1357.69 112.332 1352.69 117.332 1349.69L365.332 1239.69C375.332 1235.69 387.332 1239.69 391.332 1249.69C396.332 1259.69 391.332 1271.69 381.332 1276.69L166.332 1376.69L316.332 1588.69C331.332 1596.69 310.332 1606.69 304.332 1613.69L306.332 1621.69C302.332 1626.69 286.332 1629.69 280.332 1629.69Z" fill="#E6007A"/>
<path fill-rule="evenodd" clip-rule="evenodd" d="M891.332 1704.71C721.332 1698.71 546.796 1610.17 452.796 1481.17C452.796 1481.17 720.902 1247.48 891.332 1097.29C891.332 1333.95 891.332 1704.71 891.332 1704.71ZM891.332 1097.29C1060.43 1248.03 1324.62 1485.41 1324.62 1485.41C1230.62 1614.41 1061.33 1698.71 891.332 1704.71C891.332 1704.71 891.332 1333.95 891.332 1097.29ZM891.332 1097.29L452.796 1481.17C401.796 1399.17 353.332 1271.71 353.332 1167.71L353.332 726.706C353.332 606.706 451.332 508.706 571.332 508.706L891.332 508.706V1097.29ZM891.332 508.706H1210.33C1330.33 508.706 1428.33 606.706 1428.33 726.706V1167.71C1428.33 1271.71 1375.62 1403.41 1324.62 1485.41L891.332 1097.29V508.706Z" fill="#E6007A"/>
<path fill-rule="evenodd" clip-rule="evenodd" d="M1490.33 1631.69C1484.33 1631.69 1488.33 1628.69 1484.33 1623.69L1466.33 1613.69C1460.33 1606.69 1460.33 1596.69 1465.33 1588.69L1615.33 1376.69L1400.33 1278.69C1390.33 1273.69 1385.33 1261.69 1390.33 1251.69C1394.33 1241.69 1406.33 1235.69 1416.33 1239.69L1663.33 1349.69C1669.33 1352.69 1673.33 1357.69 1674.33 1362.69C1676.33 1368.69 1675.33 1374.69 1671.33 1379.69L1517.33 1599.69L1515.33 1598.69C1522.33 1606.69 1521.33 1619.69 1512.33 1626.69C1509.33 1629.69 1494.33 1631.69 1490.33 1631.69Z" fill="#E6007A"/>
<path fill-rule="evenodd" clip-rule="evenodd" d="M568.333 468.705C596.333 316.705 730.333 200.705 890.333 200.705C1051.33 200.705 1185.33 316.705 1213.33 468.705C1212.33 468.705 1211.33 468.705 1210.33 468.705L571.333 468.705C570.333 468.705 569.333 468.705 568.333 468.705Z" fill="#E6007A"/>
<path fill-rule="evenodd" clip-rule="evenodd" d="M1149.33 381.687C1142.33 381.687 1128.69 371.018 1125.69 364.018C1120.69 354.018 1121.95 336.602 1131.95 331.602L1346.24 236.208L1207.21 39.6659C1200.21 30.6659 1208.93 10.3342 1217.93 4.33416C1226.93 -1.66584 1243.33 -1.31269 1249.33 7.68731L1413.33 239.687C1416.33 244.687 1417.33 250.687 1416.33 256.687C1414.33 261.687 1410.33 266.687 1405.33 269.687L1157.33 379.687C1155.33 380.687 1152.33 381.687 1149.33 381.687Z" fill="black"/>
<path fill-rule="evenodd" clip-rule="evenodd" d="M1149.33 381.687C1142.33 381.687 1128.69 371.018 1125.69 364.018C1120.69 354.018 1121.95 336.602 1131.95 331.602L1346.24 236.208L1207.21 39.6659C1200.21 30.6659 1208.93 10.3342 1217.93 4.33416C1226.93 -1.66584 1243.33 -1.31269 1249.33 7.68731L1413.33 239.687C1416.33 244.687 1417.33 250.687 1416.33 256.687C1414.33 261.687 1410.33 266.687 1405.33 269.687L1157.33 379.687C1155.33 380.687 1152.33 381.687 1149.33 381.687Z" fill="#E6007A"/>
<path fill-rule="evenodd" clip-rule="evenodd" d="M1400.13 802.634C1406.01 792.813 1422.68 787.79 1432.88 793.468L1763.02 1005.28C1773.22 1010.95 1772.67 1027.99 1767.66 1037.31C1753.68 1053.1 1745.39 1052.74 1735.18 1047.06L1405.05 835.253C1401.64 833.36 1394.26 812.455 1400.13 802.634Z" fill="#E6007A"/>
<path fill-rule="evenodd" clip-rule="evenodd" d="M390.173 818.551C395.74 828.551 391.757 845.496 381.736 851.496L33.2386 1031.5C23.2179 1037.5 8.74355 1028.5 3.1765 1019.5C-3.50396 999.496 0.949685 992.496 10.9704 986.496L359.468 806.496C362.808 804.496 384.606 808.551 390.173 818.551Z" fill="#E6007A"/>
<path fill-rule="evenodd" clip-rule="evenodd" d="M544.834 23.8967C551.171 20.9247 568.05 24.7932 573.738 29.8572C582.511 36.7882 588.766 53.0912 581.835 61.864L428.322 239.216L637.649 358.132C647.808 363.309 648.541 385.422 642.94 394.675C637.339 403.929 622.341 410.572 613.088 404.971L366.101 264.551C361.262 261.298 357.809 256.29 356.167 250.433C355.855 245.057 357.354 238.832 360.607 233.993L538.44 29.1042C539.826 27.3496 542.117 25.1705 544.834 23.8967Z" fill="#E6007A"/>
</svg>
